<svg width="105" height="42" viewBox="0 0 105 42" fill="none" xmlns="http://www.w3.org/2000/svg">
<rect width="105" height="42" rx="2" fill="black"/>
<path d="M18.9262 28V14H20.9262V26.26H28.5062V28H18.9262ZM34.8445 28.12C33.9378 28.12 33.1378 27.9533 32.4445 27.62C31.7645 27.2867 31.2311 26.78 30.8445 26.1C30.4711 25.4067 30.2845 24.54 30.2845 23.5V17.4H32.2045V23.28C32.2045 24.32 32.4511 25.1 32.9445 25.62C33.4511 26.14 34.1578 26.4 35.0645 26.4C35.7311 26.4 36.3111 26.2667 36.8045 26C37.2978 25.72 37.6778 25.32 37.9445 24.8C38.2111 24.2667 38.3445 23.6267 38.3445 22.88V17.4H40.2645V28H38.4445V25.14L38.7445 25.9C38.3978 26.6067 37.8778 27.1533 37.1845 27.54C36.4911 27.9267 35.7111 28.12 34.8445 28.12ZM57.1796 17.3C58.0329 17.3 58.7863 17.4667 59.4396 17.8C60.0929 18.1333 60.5996 18.64 60.9596 19.32C61.3329 20 61.5196 20.86 61.5196 21.9V28H59.5996V22.12C59.5996 21.0933 59.3596 20.32 58.8796 19.8C58.3996 19.28 57.7263 19.02 56.8596 19.02C56.2196 19.02 55.6596 19.1533 55.1796 19.42C54.6996 19.6867 54.3263 20.08 54.0596 20.6C53.8063 21.12 53.6796 21.7667 53.6796 22.54V28H51.7596V22.12C51.7596 21.0933 51.5196 20.32 51.0396 19.8C50.5729 19.28 49.8996 19.02 49.0196 19.02C48.3929 19.02 47.8396 19.1533 47.3596 19.42C46.8796 19.6867 46.5063 20.08 46.2396 20.6C45.9729 21.12 45.8396 21.7667 45.8396 22.54V28H43.9196V17.4H45.7596V20.22L45.4596 19.5C45.7929 18.8067 46.3063 18.2667 46.9996 17.88C47.6929 17.4933 48.4996 17.3 49.4196 17.3C50.4329 17.3 51.3063 17.5533 52.0396 18.06C52.7729 18.5533 53.2529 19.3067 53.4796 20.32L52.6996 20C53.0196 19.1867 53.5796 18.5333 54.3796 18.04C55.1796 17.5467 56.1129 17.3 57.1796 17.3ZM69.7724 28.12C68.6391 28.12 67.6391 27.8867 66.7724 27.42C65.9191 26.9533 65.2524 26.3133 64.7724 25.5C64.3058 24.6867 64.0724 23.7533 64.0724 22.7C64.0724 21.6467 64.2991 20.7133 64.7524 19.9C65.2191 19.0867 65.8524 18.4533 66.6524 18C67.4658 17.5333 68.3791 17.3 69.3924 17.3C70.4191 17.3 71.3258 17.5267 72.1124 17.98C72.8991 18.4333 73.5124 19.0733 73.9524 19.9C74.4058 20.7133 74.6324 21.6667 74.6324 22.76C74.6324 22.84 74.6258 22.9333 74.6124 23.04C74.6124 23.1467 74.6058 23.2467 74.5924 23.34H65.5724V21.96H73.5924L72.8124 22.44C72.8258 21.76 72.6858 21.1533 72.3924 20.62C72.0991 20.0867 71.6924 19.6733 71.1724 19.38C70.6658 19.0733 70.0724 18.92 69.3924 18.92C68.7258 18.92 68.1324 19.0733 67.6124 19.38C67.0924 19.6733 66.6858 20.0933 66.3924 20.64C66.0991 21.1733 65.9524 21.7867 65.9524 22.48V22.8C65.9524 23.5067 66.1124 24.14 66.4324 24.7C66.7658 25.2467 67.2258 25.6733 67.8124 25.98C68.3991 26.2867 69.0724 26.44 69.8324 26.44C70.4591 26.44 71.0258 26.3333 71.5324 26.12C72.0524 25.9067 72.5058 25.5867 72.8924 25.16L73.9524 26.4C73.4724 26.96 72.8724 27.3867 72.1524 27.68C71.4458 27.9733 70.6524 28.12 69.7724 28.12ZM81.8385 28.12C80.7718 28.12 79.8252 27.8867 78.9985 27.42C78.1718 26.9533 77.5185 26.3133 77.0385 25.5C76.5585 24.6733 76.3185 23.74 76.3185 22.7C76.3185 21.6467 76.5585 20.7133 77.0385 19.9C77.5185 19.0867 78.1718 18.4533 78.9985 18C79.8252 17.5333 80.7718 17.3 81.8385 17.3C82.8918 17.3 83.8318 17.5333 84.6585 18C85.4985 18.4533 86.1518 19.0867 86.6185 19.9C87.0985 20.7 87.3385 21.6333 87.3385 22.7C87.3385 23.7533 87.0985 24.6867 86.6185 25.5C86.1518 26.3133 85.4985 26.9533 84.6585 27.42C83.8318 27.8867 82.8918 28.12 81.8385 28.12ZM81.8385 26.44C82.5185 26.44 83.1252 26.2867 83.6585 25.98C84.2052 25.6733 84.6318 25.24 84.9385 24.68C85.2452 24.1067 85.3985 23.4467 85.3985 22.7C85.3985 21.94 85.2452 21.2867 84.9385 20.74C84.6318 20.18 84.2052 19.7467 83.6585 19.44C83.1252 19.1333 82.5185 18.98 81.8385 18.98C81.1585 18.98 80.5518 19.1333 80.0185 19.44C79.4852 19.7467 79.0585 20.18 78.7385 20.74C78.4185 21.2867 78.2585 21.94 78.2585 22.7C78.2585 23.4467 78.4185 24.1067 78.7385 24.68C79.0585 25.24 79.4852 25.6733 80.0185 25.98C80.5518 26.2867 81.1585 26.44 81.8385 26.44Z" fill="white"/>
</svg>
